# xmcd CD database file
# Copyright (C) 1997 Ti Kan
#
# Track frame offsets:
#  150
#  18730
#  50802
#  71105
#  99422
#  131275
#  166525
#  184157
#  204147
#  235340
#  292622
#  321830
#
# Disc length: 4680 seconds
#
# Revision: 1
# Processed by: cddbd v1.4b41PL1 Copyright (c) Steve Scherf et al.
# Submitted via: CDWizzard Release:4.35
#
DISCID=9f12460c
DTITLE=Eric Clapton - Eric Clapton Live In Bremen
DYEAR=1900
DGENRE=
TTITLE0=Tulsa Time
TTITLE1=I Shot The Sherrif
TTITLE2=Lay down Sally
TTITLE3=Worried Life Blues
TTITLE4=Let It Rain
TTITLE5=Double Trouble
TTITLE6=Sweet Eliza
TTITLE7=Wonderful Tonight
TTITLE8=Blues Power
TTITLE9=Have You Ever Loved A Woman
TTITLE10=Cocaine
TTITLE11=Layla
EXTD=
EXTT0=
EXTT1=
EXTT2=
EXTT3=
EXTT4=
EXTT5=
EXTT6=
EXTT7=
EXTT8=
EXTT9=
EXTT10=
EXTT11=
PLAYORDER=
